<svg width="20" height="18" viewBox="0 0 20 18" fill="none" xmlns="http://www.w3.org/2000/svg">
<path d="M14.4404 0.75C17.0925 0.750233 19.2499 2.91076 19.25 5.58984C19.25 8.84036 17.7489 11.4449 15.8604 13.3799C13.9629 15.3239 11.7203 16.5417 10.3779 17L10.3701 17.0029C10.3052 17.0258 10.1711 17.0498 10 17.0498C9.82888 17.0498 9.69476 17.0258 9.62988 17.0029L9.62207 17C8.27973 16.5417 6.03707 15.3239 4.13965 13.3799C2.2511 11.4449 0.75 8.84036 0.75 5.58984C0.750084 2.91077 2.90753 0.750233 5.55957 0.75C7.13104 0.75 8.52213 1.50883 9.39746 2.6875C9.53895 2.87801 9.76269 2.99023 10 2.99023C10.2373 2.99023 10.461 2.87801 10.6025 2.6875C11.4774 1.50945 12.8782 0.75 14.4404 0.75Z" fill="#FF3D54" stroke="#FF3D54" stroke-width="1.5" stroke-linecap="round" stroke-linejoin="round"/>
</svg>
