<svg width="17" height="22" viewBox="0 0 17 22" fill="none" xmlns="http://www.w3.org/2000/svg">
<path d="M15.9356 8.42317C15.687 8.42317 15.4485 8.52194 15.2727 8.69775C15.0969 8.87357 14.9981 9.11203 14.9981 9.36067V13.3244C14.9971 14.1372 14.6738 14.9163 14.0991 15.491C13.5244 16.0657 12.7452 16.389 11.9325 16.39H6.95156L8.63062 14.7147C8.80166 14.5382 8.89651 14.3015 8.89473 14.0557C8.89295 13.8098 8.79468 13.5745 8.6211 13.4005C8.44752 13.2264 8.21251 13.1275 7.9667 13.125C7.72088 13.1225 7.48393 13.2167 7.30687 13.3872L4.02187 16.6638C3.84605 16.8396 3.74696 17.0779 3.74625 17.3266V17.3275C3.74625 17.3491 3.7575 17.3669 3.75844 17.3885C3.76346 17.6163 3.85813 17.8329 4.02187 17.9913L7.305 21.2763C7.48181 21.4471 7.71863 21.5416 7.96444 21.5394C8.21025 21.5373 8.44538 21.4387 8.6192 21.2649C8.79302 21.0911 8.89162 20.8559 8.89376 20.6101C8.89589 20.3643 8.8014 20.1275 8.63062 19.9507L6.94594 18.265H11.9316C13.2414 18.2636 14.4972 17.7425 15.4235 16.8163C16.3497 15.8901 16.8707 14.6343 16.8722 13.3244V9.36067C16.8722 9.11203 16.7734 8.87357 16.5976 8.69775C16.4218 8.52194 16.1843 8.42317 15.9356 8.42317ZM9.92625 5.14567L8.24344 6.82848C8.1539 6.91496 8.08247 7.01841 8.03334 7.13279C7.98421 7.24717 7.95835 7.37019 7.95726 7.49467C7.95618 7.61915 7.9799 7.7426 8.02704 7.85781C8.07418 7.97303 8.14379 8.0777 8.23182 8.16573C8.31984 8.25375 8.42451 8.32336 8.53973 8.3705C8.65495 8.41764 8.77839 8.44136 8.90288 8.44028C9.02736 8.4392 9.15037 8.41333 9.26475 8.3642C9.37913 8.31507 9.48258 8.24365 9.56906 8.1541L12.8503 4.87285C13.0262 4.69657 13.125 4.45769 13.125 4.20864C13.125 3.95958 13.0262 3.7207 12.8503 3.54442L9.56906 0.263167C9.39225 0.0923942 9.15543 -0.00210058 8.90962 3.544e-05C8.66381 0.00217146 8.42868 0.100767 8.25486 0.274587C8.08104 0.448408 7.98244 0.683544 7.98031 0.929354C7.97817 1.17516 8.07266 1.41198 8.24344 1.58879L9.92531 3.27067H4.94063C3.63082 3.2724 2.37516 3.79349 1.44899 4.71966C0.522822 5.64583 0.00173632 6.90149 0 8.21129V12.176C0 12.4246 0.098772 12.6631 0.274587 12.8389C0.450403 13.0147 0.688859 13.1135 0.9375 13.1135C1.18614 13.1135 1.4246 13.0147 1.60041 12.8389C1.77623 12.6631 1.875 12.4246 1.875 12.176V8.21129C1.87624 7.39846 2.19975 6.61928 2.7746 6.04461C3.34945 5.46993 4.12873 5.14666 4.94156 5.14567H9.92625Z" fill="#292526"/>
</svg>
